# xmcd
# 
# Track frame offsets:
#     150
#     25465
#     44207
#     53805
#     65862
#     84797
#     113512
#     127830
#     143035
#     150972
#     169947
#     179800
# 
# Disc length: 2540
# 
# Revision: 2
# Processed by: cddbd v1.5.2PL0 Copyright (c) Steve Scherf et al.
# Submitted via: fre:ac v1.0.31
# 
DISCID=a209ea0c
DTITLE=John Denver - Forever, John
DYEAR=1998
DGENRE=Rock/Pop
TTITLE0=On the wings of an eagle
TTITLE1=River
TTITLE2=Rusty green
TTITLE3=Rita Ballou
TTITLE4=Four strong winds
TTITLE5=No one
TTITLE6=Dance little Jean
TTITLE7=High wind blowin'
TTITLE8=It's a sin to tell a lie
TTITLE9=Mr. Bojangles
TTITLE10=Nobody can take my dreams from me
TTITLE11=The game is over
EXTD=YEAR: 1998
EXTT0=
EXTT1=
EXTT2=
EXTT3=
EXTT4=
EXTT5=
EXTT6=
EXTT7=
EXTT8=
EXTT9=
EXTT10=
EXTT11=
PLAYORDER=
